<svg width="23" height="23" viewBox="0 0 23 23" fill="none" xmlns="http://www.w3.org/2000/svg">
<path d="M16.5312 7.54688C16.5312 8.14231 16.0486 8.625 15.4531 8.625C14.8577 8.625 14.375 8.14231 14.375 7.54688C14.375 6.95144 14.8577 6.46875 15.4531 6.46875C16.0486 6.46875 16.5312 6.95144 16.5312 7.54688Z" fill="white"/>
<path fill-rule="evenodd" clip-rule="evenodd" d="M11.5 15.0938C13.4848 15.0938 15.0938 13.4848 15.0938 11.5C15.0938 9.51523 13.4848 7.90625 11.5 7.90625C9.51523 7.90625 7.90625 9.51523 7.90625 11.5C7.90625 13.4848 9.51523 15.0938 11.5 15.0938ZM11.5 13.6562C12.6909 13.6562 13.6562 12.6909 13.6562 11.5C13.6562 10.3091 12.6909 9.34375 11.5 9.34375C10.3091 9.34375 9.34375 10.3091 9.34375 11.5C9.34375 12.6909 10.3091 13.6562 11.5 13.6562Z" fill="white"/>
<path fill-rule="evenodd" clip-rule="evenodd" d="M4.3125 11.2125C4.3125 8.79727 4.3125 7.58966 4.78253 6.66717C5.19599 5.85572 5.85572 5.19599 6.66717 4.78253C7.58966 4.3125 8.79727 4.3125 11.2125 4.3125H11.7875C14.2027 4.3125 15.4103 4.3125 16.3328 4.78253C17.1443 5.19599 17.804 5.85572 18.2175 6.66717C18.6875 7.58966 18.6875 8.79727 18.6875 11.2125V11.7875C18.6875 14.2027 18.6875 15.4103 18.2175 16.3328C17.804 17.1443 17.1443 17.804 16.3328 18.2175C15.4103 18.6875 14.2027 18.6875 11.7875 18.6875H11.2125C8.79727 18.6875 7.58966 18.6875 6.66717 18.2175C5.85572 17.804 5.19599 17.1443 4.78253 16.3328C4.3125 15.4103 4.3125 14.2027 4.3125 11.7875V11.2125ZM11.2125 5.75H11.7875C13.0188 5.75 13.8559 5.75112 14.5029 5.80398C15.1331 5.85547 15.4554 5.9488 15.6802 6.06336C16.2212 6.33899 16.661 6.77881 16.9366 7.31978C17.0512 7.5446 17.1445 7.86689 17.196 8.49712C17.2489 9.14412 17.25 9.98117 17.25 11.2125V11.7875C17.25 13.0188 17.2489 13.8559 17.196 14.5029C17.1445 15.1331 17.0512 15.4554 16.9366 15.6802C16.661 16.2212 16.2212 16.661 15.6802 16.9366C15.4554 17.0512 15.1331 17.1445 14.5029 17.196C13.8559 17.2489 13.0188 17.25 11.7875 17.25H11.2125C9.98117 17.25 9.14412 17.2489 8.49712 17.196C7.86689 17.1445 7.5446 17.0512 7.31978 16.9366C6.77881 16.661 6.33899 16.2212 6.06336 15.6802C5.9488 15.4554 5.85547 15.1331 5.80398 14.5029C5.75112 13.8559 5.75 13.0188 5.75 11.7875V11.2125C5.75 9.98117 5.75112 9.14412 5.80398 8.49712C5.85547 7.86689 5.9488 7.5446 6.06336 7.31978C6.33899 6.77881 6.77881 6.33899 7.31978 6.06336C7.5446 5.9488 7.86689 5.85547 8.49712 5.80398C9.14412 5.75112 9.98117 5.75 11.2125 5.75Z" fill="white"/>
</svg>
